<svg width="390" height="241" viewBox="0 0 390 241" fill="none" xmlns="http://www.w3.org/2000/svg">
<path d="M497.813 25.6857C541.769 13.9079 586.754 39.2663 598.292 82.3247C601.963 96.026 601.804 109.868 598.466 122.754C618.288 132.407 633.887 150.076 639.97 172.781C651.248 214.87 625.559 258.323 582.594 269.836C548.642 278.933 514.062 265.363 495.482 238.502C485.909 249.377 473.059 257.679 457.913 261.738C430.887 268.979 403.434 260.872 385.135 242.817C376.027 251.838 364.465 258.707 351.121 262.283C310.916 273.056 269.768 249.861 259.215 210.476C248.662 171.092 272.7 130.431 312.905 119.658C319.02 118.019 325.158 117.168 331.206 117.039C337.703 91.71 357.626 70.3936 385.099 63.0323C405.844 57.4737 426.84 60.9584 443.755 71.0449C453.638 49.5579 472.882 32.3659 497.813 25.6857Z" fill="#C5E0F3"/>
<path d="M1.57719 93.6858C-42.3781 81.908 -87.3638 107.266 -98.9013 150.325C-102.572 164.026 -102.413 177.868 -99.0752 190.754C-118.897 200.407 -134.496 218.076 -140.58 240.781C-151.858 282.87 -126.169 326.323 -83.2034 337.836C-49.2516 346.933 -14.6711 333.363 3.90883 306.502C13.481 317.378 26.3315 325.679 41.4778 329.738C68.5038 336.979 95.9564 328.873 114.255 310.817C123.364 319.838 134.925 326.707 148.269 330.283C188.475 341.056 229.623 317.861 240.176 278.477C250.729 239.092 226.691 198.431 186.486 187.658C180.37 186.019 174.233 185.168 168.184 185.039C161.688 159.71 141.765 138.394 114.292 131.032C93.5464 125.474 72.5502 128.958 55.6354 139.045C45.7521 117.558 26.5079 100.366 1.57719 93.6858Z" fill="#C5E0F3"/>
<path d="M181.813 133.686C225.769 121.908 270.754 147.266 282.292 190.325C285.963 204.026 285.804 217.868 282.466 230.754C302.288 240.407 317.887 258.076 323.97 280.781C335.248 322.87 309.559 366.323 266.594 377.836C232.642 386.933 198.062 373.363 179.482 346.502C169.909 357.378 157.059 365.679 141.913 369.738C114.887 376.979 87.434 368.873 69.1353 350.817C60.0268 359.838 48.465 366.707 35.1209 370.283C-5.08418 381.056 -46.2323 357.861 -56.7854 318.477C-67.3383 279.092 -43.3003 238.431 -3.09536 227.658C3.0202 226.019 9.1577 225.168 15.2059 225.039C21.7029 199.71 41.6258 178.394 69.0985 171.032C89.844 165.474 110.84 168.958 127.755 179.045C137.638 157.558 156.882 140.366 181.813 133.686Z" fill="#C5E0F3"/>
</svg>
